# xmcd
#
# Track frame offsets:
# 150
# 26538
# 53580
# 80862
# 105186
# 123069
# 150698
# 179047
# 207829
# 238917
# 267150
# 301388
#
# Disc length: 4370 seconds
#
# Revision: 0
# Processed by: cddbd v1.5.1PL0 Copyright (c) Steve Scherf et al.
# Submitted via: Audion 3.0.2 (http://www.panic.com/audion/)
#
DISCID=9911100c
DTITLE=Massive Attack - Singles
DYEAR=1900
DGENRE=
TTITLE0=Single 1
TTITLE1=Single 2
TTITLE2=Single 3
TTITLE3=Single 4
TTITLE4=Single 5
TTITLE5=Single 6
TTITLE6=Single 7
TTITLE7=Single 8
TTITLE8=Single 9
TTITLE9=Single 10
TTITLE10=Single 11
TTITLE11=Single 12
EXTD=
EXTT0=
EXTT1=
EXTT2=
EXTT3=
EXTT4=
EXTT5=
EXTT6=
EXTT7=
EXTT8=
EXTT9=
EXTT10=
EXTT11=
PLAYORDER=
